<?xml version="1.0" standalone="no"?>
<!DOCTYPE svg PUBLIC "-//W3C//DTD SVG 20010904//EN"
 "http://www.w3.org/TR/2001/REC-SVG-20010904/DTD/svg10.dtd">
<svg version="1.0" xmlns="http://www.w3.org/2000/svg"
 width="1024.000000pt" height="1024.000000pt" viewBox="0 0 1024.000000 1024.000000"
 preserveAspectRatio="xMidYMid meet">
<metadata>
Created by potrace 1.11, written by Peter Selinger 2001-2013
</metadata>
<g transform="translate(0.000000,1024.000000) scale(0.100000,-0.100000)"
fill="#000000" stroke="none">
<path d="M1974 8553 c-30 -7 -67 -19 -82 -27 -45 -23 -121 -95 -147 -140 -56
-96 -53 17 -53 -1999 0 -1043 4 -1895 9 -1937 20 -161 77 -359 142 -485 85
-167 223 -339 372 -464 226 -191 431 -282 755 -337 19 -3 760 -7 1645 -8 1767
-2 1713 -4 1940 60 191 54 431 195 585 345 45 44 156 170 188 214 162 222 259
513 266 795 1 40 5 55 16 57 8 1 170 4 360 7 190 2 363 7 385 11 198 31 376
78 495 132 239 106 431 236 602 406 99 98 112 112 200 222 218 272 339 575
394 980 13 94 6 386 -11 500 -29 192 -89 393 -166 560 -22 50 -136 245 -148
255 -3 3 -26 32 -51 65 -65 86 -101 127 -215 240 -255 255 -547 420 -895 505
-93 22 -108 25 -190 35 -30 3 -73 9 -95 12 -22 4 -1437 7 -3143 7 -2421 1
-3116 -2 -3158 -11z m6293 -986 c12 -3 50 -13 85 -23 88 -23 231 -94 309 -153
220 -166 363 -403 400 -660 23 -162 -2 -356 -66 -511 -59 -144 -203 -320 -345
-425 -109 -79 -264 -148 -365 -161 -22 -3 -47 -8 -55 -11 -8 -3 -153 -7 -322
-8 -223 -2 -308 1 -309 9 -1 6 -2 449 -3 984 l-1 974 325 -5 c179 -2 335 -6
347 -10z m-3286 -852 c491 -61 909 -287 1258 -680 51 -58 165 -209 206 -275
107 -168 223 -478 251 -667 3 -21 7 -45 9 -53 7 -25 18 -153 18 -198 0 -23 -6
-54 -14 -68 -24 -45 -52 -52 -197 -50 -179 3 -178 2 -198 191 -16 156 -83 383
-154 525 -45 90 -126 213 -195 296 -295 355 -674 555 -1117 589 -66 5 -109 30
-121 70 -12 37 -10 243 2 272 24 59 81 70 252 48z m-938 -609 c15 -10 38 -33
50 -50 l22 -31 1 -825 c1 -928 -2 -886 76 -975 62 -70 125 -98 223 -99 68 -1
88 3 138 28 147 71 206 254 131 402 -34 68 -84 114 -160 148 -39 17 -67 38
-83 61 -23 33 -23 41 -23 234 0 187 1 202 21 234 45 72 100 87 216 57 247 -63
449 -228 572 -466 68 -133 94 -238 96 -389 3 -254 -108 -510 -296 -683 -265
-242 -681 -305 -992 -150 -227 114 -402 308 -474 526 -44 134 -44 150 -46
1032 -1 794 0 847 17 882 21 43 62 75 103 80 17 3 109 4 205 3 151 -1 179 -4
203 -19z m877 9 c19 -3 51 -7 70 -9 173 -21 421 -135 594 -272 302 -239 490
-567 532 -929 13 -112 4 -143 -49 -168 -37 -18 -270 -17 -303 1 -26 14 -41 51
-48 122 -8 79 -14 106 -42 188 -46 139 -111 247 -213 355 -167 177 -351 276
-581 313 -151 24 -161 37 -161 212 -1 194 21 214 201 187z"/>
<path d="M408 2660 c-67 -5 -82 -10 -115 -37 -65 -52 -84 -97 -85 -194 0 -149
85 -374 192 -506 88 -108 246 -205 375 -227 17 -3 46 -8 65 -12 45 -8 7989 -8
8055 0 81 10 145 27 226 61 194 81 321 220 390 426 36 107 44 157 43 274 0 67
-4 99 -18 124 -27 51 -63 79 -109 86 -52 8 -8913 12 -9019 5z"/>
</g>
</svg>
