<?xml version="1.0" standalone="no"?>
<!DOCTYPE svg PUBLIC "-//W3C//DTD SVG 20010904//EN"
 "http://www.w3.org/TR/2001/REC-SVG-20010904/DTD/svg10.dtd">
<svg version="1.0" xmlns="http://www.w3.org/2000/svg"
 width="1024.000000pt" height="1024.000000pt" viewBox="0 0 1024.000000 1024.000000"
 preserveAspectRatio="xMidYMid meet">
<metadata>
Created by potrace 1.11, written by Peter Selinger 2001-2013
</metadata>
<g transform="translate(0.000000,1024.000000) scale(0.100000,-0.100000)"
fill="#000000" stroke="none">
<path d="M1865 8656 c-140 -44 -246 -159 -270 -291 -8 -45 -8 -3886 0 -3925 3
-14 8 -45 11 -70 23 -186 117 -431 222 -585 281 -408 662 -639 1131 -684 86
-8 3344 -6 3381 2 14 3 45 8 70 11 25 4 63 11 85 17 22 5 50 12 62 14 12 3 34
10 48 15 14 5 25 8 25 5 0 -5 124 46 189 77 282 137 556 409 699 694 57 113
115 301 137 444 3 19 8 78 11 130 4 52 8 97 11 99 2 3 146 6 321 6 408 2 483
10 724 70 450 114 879 433 1171 871 205 308 316 700 311 1104 -1 80 -4 165 -8
190 -3 25 -8 68 -12 95 -7 67 -38 202 -68 302 -93 309 -241 552 -501 821 -200
209 -491 397 -755 490 -81 28 -285 78 -360 88 -19 2 -64 8 -100 13 -38 6
-1408 10 -3280 10 -2571 0 -3223 -3 -3255 -13z m6492 -1015 c197 -37 381 -136
528 -285 141 -142 221 -275 272 -453 21 -72 26 -115 29 -233 4 -157 -6 -220
-52 -358 -101 -302 -389 -569 -704 -653 -79 -21 -110 -23 -422 -27 l-338 -3 0
1013 0 1014 313 -2 c185 -1 337 -6 374 -13z m-3376 -926 c491 -61 909 -287
1258 -680 51 -58 165 -209 206 -275 106 -167 223 -479 250 -666 4 -22 8 -46
10 -54 6 -24 19 -161 18 -203 0 -21 -6 -49 -14 -63 -24 -45 -52 -52 -197 -50
-178 3 -179 3 -196 186 -16 154 -82 383 -153 525 -167 332 -489 638 -818 775
-139 57 -333 103 -490 115 -74 5 -115 28 -128 70 -12 38 -11 242 2 272 24 59
81 70 252 48z m-938 -609 c15 -10 38 -33 50 -50 l22 -31 1 -825 c1 -928 -2
-886 76 -975 62 -70 125 -98 223 -99 69 -1 88 3 138 28 147 72 206 254 131
402 -34 68 -84 114 -160 148 -39 17 -67 38 -83 61 -22 33 -23 41 -23 235 0
186 2 202 21 234 45 71 100 86 216 56 245 -63 443 -223 568 -460 211 -398 80
-900 -302 -1159 -259 -176 -617 -204 -886 -69 -228 115 -402 308 -474 526 -44
134 -44 150 -46 1032 -1 794 0 847 17 882 21 43 62 75 103 80 17 2 109 4 205
3 152 -1 179 -3 203 -19z m877 9 c19 -2 53 -7 74 -10 147 -20 356 -107 512
-212 86 -57 107 -75 219 -189 222 -223 355 -496 391 -799 13 -112 4 -143 -49
-168 -37 -18 -270 -17 -303 1 -26 14 -41 51 -48 122 -17 161 -87 334 -190 468
-162 211 -387 346 -646 388 -151 24 -161 36 -161 211 -1 195 19 213 201 188z"/>
<path d="M183 2570 c-143 -65 -164 -243 -61 -505 17 -44 50 -111 72 -150 49
-84 172 -209 244 -248 72 -39 186 -77 257 -85 76 -9 8282 -9 8350 0 118 15
283 90 387 174 119 98 222 283 244 439 3 22 9 54 13 70 11 46 3 177 -13 216
-20 48 -64 86 -111 97 -24 5 -1970 9 -4692 9 -4384 0 -4655 -1 -4690 -17z"/>
</g>
</svg>
